<?xml version="1.0" encoding="UTF-8"?>
<svg id="Display" xmlns="http://www.w3.org/2000/svg" viewBox="0 0 514 430.5">
  <defs>
    <style>
      .cls-1 {
        font-size: 30px;
      }

      .cls-1, .cls-2, .cls-3, .cls-4, .cls-5, .cls-6, .cls-7 {
        font-family: Verdana, Verdana;
      }

      .cls-8 {
        letter-spacing: -.1em;
      }

      .cls-2 {
        fill: #444;
        font-size: 25px;
      }

      .cls-3, .cls-9 {
        fill: #464646;
        font-size: 12px;
      }

      .cls-4 {
        font-size: 32px;
      }

      .cls-10 {
        letter-spacing: 0em;
      }

      .cls-5 {
        font-size: 26px;
      }

      .cls-6, .cls-11 {
        font-size: 29px;
      }

      .cls-12 {
        stroke: #b5b5b5;
      }

      .cls-12, .cls-13, .cls-14 {
        stroke-miterlimit: 10;
      }

      .cls-12, .cls-14, .cls-15 {
        fill: #fff;
      }

      .cls-13 {
        fill: none;
        stroke: #ececec;
        stroke-width: 2px;
      }

      .cls-14 {
        stroke: #dadada;
        stroke-width: 1.5px;
      }

      .cls-9 {
        font-family: MyriadPro-Regular, 'Myriad Pro';
      }

      .cls-11 {
        fill: #ededed;
        font-family: Verdana-Bold, Verdana;
        font-weight: 700;
      }

      .cls-16 {
        fill: #474747;
      }

      .cls-16, .cls-17, .cls-18, .cls-19, .cls-20, .cls-21, .cls-15, .cls-22 {
        stroke-width: 0px;
      }

      .cls-17 {
        fill: #2b2b2b;
      }

      .cls-18 {
        fill: #868686;
      }

      .cls-19 {
        fill: #5a5a5a;
      }

      .cls-20 {
        fill: #dadada;
      }

      .cls-21 {
        fill: #ececec;
      }

      .cls-22 {
        fill: #0001ef;
      }

      .cls-23 {
        letter-spacing: 0em;
      }

      .cls-7 {
        font-size: 10px;
      }
    </style>
  </defs>
  <g id="outsideLayers">
    <polyline id="topBorder" class="cls-16" points="18 54.5 0 36.5 514 36.5 496 54.5"/>
    <polygon id="rightBorder" class="cls-18" points="514 430.5 496 412.5 496 54.5 514 36.5 514 430.5"/>
    <polygon id="bottomBorder" class="cls-19" points="0 430.5 514 430.5 496 412.5 18 412.5 0 430.5"/>
    <polygon id="leftBorder" class="cls-18" points="0 36.5 0 430.5 18 412.5 18 54.5 0 36.5"/>
  </g>
  <g id="boxesAndBackgrounds">
    <rect class="cls-21" x="18" y="98.5" width="478" height="314"/>
    <rect class="cls-12" x="25.5" y="141" width="90" height="41"/>
    <rect class="cls-12" x="123.5" y="141" width="90" height="41"/>
    <rect class="cls-12" x="25.5" y="226" width="90" height="38"/>
    <rect class="cls-12" x="25.5" y="287" width="90" height="38"/>
    <rect class="cls-12" x="25.5" y="368" width="90" height="38"/>
    <rect class="cls-12" x="123.5" y="368" width="90" height="38"/>
    <rect class="cls-12" x="329.5" y="368" width="101" height="38"/>
    <rect class="cls-12" x="438.5" y="368" width="51" height="38"/>
    <circle id="windMeterBackground2" class="cls-20" cx="356" cy="230.5" r="80"/>
    <circle id="windMeterVariableArea" class="cls-22" cx="356" cy="230.5" r="80"/>
    <circle id="windMeterActiveArea" class="cls-17" cx="356" cy="230.5" r="80"/>
    <g>
      <line id="tick1" class="cls-13" x1="357.4" y1="246.5" x2="363" y2="310.2"/>
      <line id="tick1-2" data-name="tick1" class="cls-13" x1="354.6" y1="246.5" x2="349" y2="310.2"/>
      <line id="tick1-3" data-name="tick1" class="cls-13" x1="351.9" y1="246" x2="335.3" y2="307.8"/>
      <line id="tick1-4" data-name="tick1" class="cls-13" x1="349.2" y1="245" x2="322.2" y2="303"/>
      <line id="tick1-5" data-name="tick1" class="cls-13" x1="346.8" y1="243.6" x2="310.1" y2="296"/>
      <line id="tick1-6" data-name="tick1" class="cls-13" x1="344.7" y1="241.8" x2="299.4" y2="287.1"/>
      <line id="tick1-7" data-name="tick1" class="cls-13" x1="342.9" y1="239.7" x2="290.5" y2="276.4"/>
      <line id="tick1-8" data-name="tick1" class="cls-13" x1="341.5" y1="237.3" x2="283.5" y2="264.3"/>
      <line id="tick1-9" data-name="tick1" class="cls-13" x1="340.5" y1="234.7" x2="278.7" y2="251.2"/>
      <line id="tick1-10" data-name="tick1" class="cls-13" x1="340.1" y1="231.9" x2="276.3" y2="237.5"/>
      <line id="tick1-11" data-name="tick1" class="cls-13" x1="340.1" y1="229.1" x2="276.3" y2="223.5"/>
      <line id="tick1-12" data-name="tick1" class="cls-13" x1="340.5" y1="226.4" x2="278.7" y2="209.8"/>
      <line id="tick1-13" data-name="tick1" class="cls-13" x1="341.5" y1="223.8" x2="283.5" y2="196.7"/>
      <line id="tick1-14" data-name="tick1" class="cls-13" x1="342.9" y1="221.3" x2="290.5" y2="184.6"/>
      <line id="tick1-15" data-name="tick1" class="cls-13" x1="344.7" y1="219.2" x2="299.4" y2="173.9"/>
      <line id="tick1-16" data-name="tick1" class="cls-13" x1="346.8" y1="217.4" x2="310.1" y2="165"/>
      <line id="tick1-17" data-name="tick1" class="cls-13" x1="349.2" y1="216" x2="322.2" y2="158"/>
      <line id="tick1-18" data-name="tick1" class="cls-13" x1="351.9" y1="215.1" x2="335.3" y2="153.2"/>
      <line id="tick1-19" data-name="tick1" class="cls-13" x1="354.6" y1="214.6" x2="349" y2="150.8"/>
      <line id="tick1-20" data-name="tick1" class="cls-13" x1="357.4" y1="214.6" x2="363" y2="150.8"/>
      <line id="tick1-21" data-name="tick1" class="cls-13" x1="360.1" y1="215.1" x2="376.7" y2="153.2"/>
      <line id="tick1-22" data-name="tick1" class="cls-13" x1="362.8" y1="216" x2="389.8" y2="158"/>
      <line id="tick1-23" data-name="tick1" class="cls-13" x1="365.2" y1="217.4" x2="401.9" y2="165"/>
      <line id="tick1-24" data-name="tick1" class="cls-13" x1="367.3" y1="219.2" x2="412.6" y2="173.9"/>
      <line id="tick1-25" data-name="tick1" class="cls-13" x1="369.1" y1="221.3" x2="421.5" y2="184.6"/>
      <line id="tick1-26" data-name="tick1" class="cls-13" x1="370.5" y1="223.8" x2="428.5" y2="196.7"/>
      <line id="tick1-27" data-name="tick1" class="cls-13" x1="371.5" y1="226.4" x2="433.3" y2="209.8"/>
      <line id="tick1-28" data-name="tick1" class="cls-13" x1="371.9" y1="229.1" x2="435.7" y2="223.5"/>
      <line id="tick1-29" data-name="tick1" class="cls-13" x1="371.9" y1="231.9" x2="435.7" y2="237.5"/>
      <line id="tick1-30" data-name="tick1" class="cls-13" x1="371.5" y1="234.7" x2="433.3" y2="251.2"/>
      <line id="tick1-31" data-name="tick1" class="cls-13" x1="370.5" y1="237.3" x2="428.5" y2="264.3"/>
      <line id="tick1-32" data-name="tick1" class="cls-13" x1="369.1" y1="239.7" x2="421.5" y2="276.4"/>
      <line id="tick1-33" data-name="tick1" class="cls-13" x1="367.3" y1="241.8" x2="412.6" y2="287.1"/>
      <line id="tick1-34" data-name="tick1" class="cls-13" x1="365.2" y1="243.6" x2="401.9" y2="296"/>
      <line id="tick1-35" data-name="tick1" class="cls-13" x1="362.8" y1="245" x2="389.8" y2="303"/>
      <line id="tick1-36" data-name="tick1" class="cls-13" x1="360.1" y1="246" x2="376.7" y2="307.8"/>
    </g>
    <circle id="windMeterBackground" class="cls-15" cx="356" cy="230.5" r="71"/>
    <rect id="windMeterRoundedBox" class="cls-14" x="317" y="197.5" width="77" height="65" rx="4.2" ry="4.2"/>
    <rect id="topHeadingBackground" class="cls-20" x="18" y="54.5" width="478" height="45"/>
  </g>
  <g id="possibleDataValues">
    <text id="knotsBig" class="cls-5" transform="translate(347.5 255.6)"><tspan x="0" y="0">5</tspan></text>
    <text id="directionBig" class="cls-5" transform="translate(331 223.6)"><tspan x="0" y="0">130</tspan></text>
    <rect id="qnhBackground" class="cls-12" x="220.5" y="368" width="101" height="38"/>
    <rect id="mnmSpeedBackground" class="cls-12" x="123.5" y="226" width="90" height="38"/>
    <rect id="maxSpeedBackground" class="cls-12" x="123.5" y="287" width="90" height="38"/>
    <text id="direction2min" class="cls-4" transform="translate(40.3 172.6)"><tspan x="0" y="0">130</tspan></text>
    <text id="directionMnm" class="cls-4" transform="translate(40.3 256.6)"><tspan x="0" y="0">120</tspan></text>
    <text id="speed2min" class="cls-4" transform="translate(158.6 172.6)"><tspan x="0" y="0">5</tspan></text>
    <text id="speedMnm" class="cls-4" transform="translate(158.6 256.6)"><tspan x="0" y="0">5</tspan></text>
    <text id="directionMax" class="cls-4" transform="translate(40.3 316.6)"><tspan x="0" y="0">130</tspan></text>
    <text id="temperature" class="cls-1" transform="translate(51.7 397.6)"><tspan x="0" y="0">28</tspan></text>
    <text id="dewpoint" class="cls-1" transform="translate(148.7 397.6)"><tspan x="0" y="0">14</tspan></text>
    <text id="pressure" class="cls-1" transform="translate(232.7 397.6)"><tspan x="0" y="0">1021</tspan></text>
    <text id="airfieldPressure" class="cls-6" transform="translate(342.9 397.6)"><tspan x="0" y="0">1018</tspan></text>
    <text id="transitionLevel" class="cls-5" transform="translate(447.3 395.6)"><tspan x="0" y="0">40</tspan></text>
    <text id="speedMax" class="cls-4" transform="translate(158.6 316.6)"><tspan x="0" y="0">5</tspan></text>
    <polygon id="windDirectionArrow" class="cls-17" points="349 162.5 362.5 162.5 355.7 180.5 349 162.5"/>
  </g>
  <g id="tickText">
    <text class="cls-7" transform="translate(349.2 144.4)"><tspan x="0" y="0">36</tspan></text>
    <text class="cls-7" transform="translate(395.2 156.4)"><tspan x="0" y="0">03</tspan></text>
    <text class="cls-7" transform="translate(428.2 190.4)"><tspan x="0" y="0">06</tspan></text>
    <text class="cls-7" transform="translate(440.2 235.4)"><tspan x="0" y="0">09</tspan></text>
    <text class="cls-7" transform="translate(428.2 281.4)"><tspan x="0" y="0">12</tspan></text>
    <text class="cls-7" transform="translate(395.2 314.4)"><tspan x="0" y="0">15</tspan></text>
    <text class="cls-7" transform="translate(349.2 326.4)"><tspan x="0" y="0">18</tspan></text>
    <text class="cls-7" transform="translate(303.2 314.4)"><tspan x="0" y="0">21</tspan></text>
    <text class="cls-7" transform="translate(270.2 281.4)"><tspan x="0" y="0">24</tspan></text>
    <text class="cls-7" transform="translate(258.2 235.4)"><tspan x="0" y="0">27</tspan></text>
    <text class="cls-7" transform="translate(270.2 190.4)"><tspan x="0" y="0">30</tspan></text>
    <text class="cls-7" transform="translate(304.2 156.4)"><tspan x="0" y="0">33</tspan></text>
  </g>
  <g id="textElements">
    <text class="cls-3" transform="translate(25.6 137.2)"><tspan x="0" y="0">2’ </tspan><tspan class="cls-23" x="15.1" y="0">A</tspan><tspan x="22.9" y="0">VG</tspan></text>
    <text class="cls-3" transform="translate(201.6 137.2)"><tspan x="0" y="0">kt</tspan></text>
    <text class="cls-3" transform="translate(201.6 222.2)"><tspan x="0" y="0">kt</tspan></text>
    <text class="cls-3" transform="translate(201.6 283.2)"><tspan x="0" y="0">kt</tspan></text>
    <text class="cls-3" transform="translate(25.6 222.2)"><tspan x="0" y="0">10’ MNM</tspan></text>
    <text class="cls-3" transform="translate(25.6 283.2)"><tspan x="0" y="0">10’ MAX</tspan></text>
    <text class="cls-3" transform="translate(25.6 364.2)"><tspan x="0" y="0">TEMP</tspan></text>
    <text class="cls-3" transform="translate(220.6 364.2)"><tspan x="0" y="0">QNH</tspan></text>
    <text class="cls-3" transform="translate(122.6 364.2)"><tspan x="0" y="0">DP</tspan></text>
    <text class="cls-3" transform="translate(299.6 364.2)"><tspan x="0" y="0">h</tspan><tspan class="cls-10" x="7.6" y="0">P</tspan><tspan x="14.5" y="0">a</tspan></text>
    <text class="cls-3" transform="translate(408.6 364.2)"><tspan x="0" y="0">h</tspan><tspan class="cls-10" x="7.6" y="0">P</tspan><tspan x="14.5" y="0">a</tspan></text>
    <text class="cls-3" transform="translate(437.6 364.2)"><tspan x="0" y="0">TL</tspan></text>
    <text class="cls-3" transform="translate(329.6 364.2)"><tspan x="0" y="0">QFE</tspan></text>
    <text class="cls-9" transform="translate(110.6 137.7)"><tspan x="0" y="0">°</tspan></text>
    <text class="cls-9" transform="translate(383.6 215.7)"><tspan x="0" y="0">°</tspan></text>
    <text class="cls-9" transform="translate(380.6 245.7)"><tspan x="0" y="0">kt</tspan></text>
    <text class="cls-9" transform="translate(110.6 222.7)"><tspan x="0" y="0">°</tspan></text>
    <text class="cls-9" transform="translate(110.6 283.7)"><tspan x="0" y="0">°</tspan></text>
    <text class="cls-9" transform="translate(101.6 364.7)"><tspan x="0" y="0">° C</tspan></text>
    <text class="cls-9" transform="translate(198.6 364.7)"><tspan x="0" y="0">° C</tspan></text>
    <text id="header" class="cls-2" transform="translate(145.3 84.2)"><tspan x="0" y="0">Wind/</tspan><tspan class="cls-8" x="74.3" y="0">T</tspan><tspan x="87" y="0">emp/Press</tspan></text>
  </g>
</svg>