<?xml version="1.0" encoding="utf-8"?>
<!-- Generator: Adobe Illustrator 28.1.0, SVG Export Plug-In . SVG Version: 6.00 Build 0)  -->
<svg version="1.1" id="airportSymbol" xmlns="http://www.w3.org/2000/svg" xmlns:xlink="http://www.w3.org/1999/xlink" x="0px"
	 y="0px" viewBox="0 0 1372.9 1358.4" style="enable-background:new 0 0 1372.9 1358.4;" xml:space="preserve">
<style type="text/css">
	.st0{fill:#4571A6;}
</style>
<path id="Symbol" class="st0" d="M1344.2,871.2c15.9-52.3,25.7-107.1,28.7-163.8c1.1-20.6-11.3-39.5-30.5-46.9l-94.2-36.2
	l-17.9-101.4l76.3-66.4c15.6-13.5,20.7-35.6,12.6-54.6c-22-51.5-50-99.8-83.3-144c-12.5-16.5-34.1-23.3-53.7-16.5l-95.5,32.8
	l-78.9-66.2l15.8-99.9c3.2-20.5-7.1-40.6-25.6-50c-49-25-101.4-44.2-156.3-56.9c-20.1-4.6-40.9,4.2-51.5,21.9L738,109.8h-103
	l-52.1-86.7C572.2,5.5,551.4-3.4,531.3,1.2c-55,12.7-107.5,32-156.5,57c-18.5,9.4-28.8,29.5-25.6,50l15.8,99.9l-78.9,66.2
	l-95.5-32.8c-19.6-6.7-41.2,0-53.7,16.6c-33.3,44.2-61.3,92.5-83.3,144c-8.1,19-2.9,41,12.6,54.6l76.3,66.4l-17.9,101.5l-94.2,36.2
	C11.3,668.1-1,687,0.1,707.6c3,56.7,12.8,111.6,28.7,163.8c6,19.8,24.1,33.5,44.8,33.9l101.1,1.8l51.5,89.2l-48.9,88.3
	c-10,18.1-7.1,40.6,7,55.8c37.8,40.5,80.5,76.3,127.1,106.7c17.4,11.3,40.1,10.3,56.2-2.8l78.5-63.6L543,1216l19.3,99.1
	c4,20.4,20.6,35.7,41.2,38.2c27.2,3.3,54.8,5,82.9,5c28.1,0,55.9-1.7,83.1-5c20.6-2.5,37.3-17.9,41.2-38.2l19.3-99.1l96.8-35.2
	l78.5,63.5c16.1,13.1,38.8,14.1,56.2,2.7c46.6-30.4,89.2-66.3,127.1-106.8c14.2-15.1,17-37.6,7-55.8l-48.9-88.3l51.5-89.2l101.1-1.8
	C1320.1,904.8,1338.1,891,1344.2,871.2z M686.5,1026c-196.1,0-355-158.9-355-355c0-196.1,158.9-355,355-355
	c196.1,0,355,158.9,355,355C1041.5,867.1,882.5,1026,686.5,1026z"/>
</svg>
